<?xml version="1.0" standalone="no"?>
<!DOCTYPE svg PUBLIC "-//W3C//DTD SVG 20010904//EN"
 "http://www.w3.org/TR/2001/REC-SVG-20010904/DTD/svg10.dtd">
<svg version="1.0" xmlns="http://www.w3.org/2000/svg"
 width="512.000000pt" height="512.000000pt" viewBox="0 0 512.000000 512.000000"
 preserveAspectRatio="xMidYMid meet">
<metadata>
Created by potrace 1.16, written by Peter Selinger 2001-2019
</metadata>
<g transform="translate(0.000000,512.000000) scale(0.100000,-0.100000)"
fill="#000000" stroke="none">
<path d="M109 5097 c-24 -13 -57 -43 -74 -66 l-30 -43 0 -353 0 -353 30 -44
c17 -23 51 -54 75 -68 l45 -25 381 -5 382 -5 141 -172 c78 -95 150 -177 161
-183 32 -17 95 -12 123 10 39 31 41 71 13 226 -23 129 -23 140 -8 149 45 27
110 103 121 140 7 25 11 150 11 335 0 289 -1 296 -24 345 -25 54 -71 100 -123
122 -26 10 -147 13 -606 13 l-574 0 -44 -23z m1164 -139 c46 -24 46 -29 47
-326 0 -283 0 -283 -23 -305 -13 -12 -37 -29 -54 -39 -18 -9 -39 -31 -48 -49
-17 -32 -22 -120 -9 -162 4 -15 -5 -9 -28 18 -116 139 -155 179 -184 191 -26
11 -111 14 -407 14 -306 0 -377 3 -393 14 -18 14 -19 31 -22 310 l-3 296 25
25 25 25 526 0 c381 0 532 -3 548 -12z"/>
<path d="M2410 5114 c-84 -16 -194 -50 -257 -79 -226 -104 -420 -314 -503
-542 -57 -160 -60 -196 -60 -857 l0 -602 -31 -30 c-56 -52 -59 -70 -59 -334
l0 -240 -89 0 -89 0 -3 86 c-4 79 -6 87 -32 110 -35 30 -68 31 -102 2 l-25
-23 -1 -255 c-1 -440 53 -661 227 -923 196 -294 509 -514 847 -593 l77 -18 0
-131 0 -132 -172 -12 c-203 -14 -400 -37 -445 -52 -54 -17 -107 -63 -137 -119
-56 -102 -29 -248 57 -314 77 -59 32 -56 949 -56 800 0 845 1 883 19 114 53
171 187 133 313 -16 55 -89 133 -141 152 -49 19 -233 41 -469 58 l-168 12 0
130 0 131 88 21 c456 109 846 468 998 920 57 171 66 236 71 549 5 279 4 291
-15 315 -15 19 -29 25 -62 25 -64 0 -80 -26 -80 -131 l0 -84 -90 0 -90 0 0
228 c0 134 -5 243 -11 267 -6 21 -26 54 -44 72 l-34 34 -3 632 -4 632 -26 95
c-94 346 -334 594 -673 696 -77 23 -111 27 -240 30 -82 1 -161 0 -175 -2z
m335 -169 c354 -90 599 -381 622 -741 l6 -92 -273 -7 c-247 -7 -274 -9 -291
-26 -24 -24 -24 -70 0 -100 l19 -24 271 -3 271 -3 0 -99 0 -100 -264 0 c-251
0 -265 -1 -290 -21 -33 -26 -36 -79 -6 -109 19 -19 33 -20 290 -20 l270 0 0
-105 0 -105 -267 0 c-260 0 -267 -1 -290 -22 -29 -27 -31 -80 -3 -108 19 -19
33 -20 290 -20 l270 0 0 -100 0 -100 -812 2 -813 3 -3 98 -3 97 271 0 271 0
24 25 c32 31 32 69 0 100 l-24 25 -271 0 -271 0 3 103 3 102 272 3 272 2 20
27 c26 32 27 64 2 94 l-19 24 -276 3 -276 3 0 99 0 100 255 0 c274 0 316 6
330 50 9 27 0 64 -21 84 -13 14 -53 16 -285 16 -218 0 -271 3 -275 14 -11 29
17 222 45 302 69 200 220 373 406 467 60 30 176 66 248 78 70 11 229 3 302
-16z m455 -2140 l0 -85 -770 0 -770 0 0 85 0 85 770 0 770 0 0 -85z m-1700
-608 c0 -165 53 -363 138 -516 59 -104 92 -135 141 -128 33 5 39 2 80 -44 34
-39 42 -55 37 -74 -10 -40 10 -72 75 -116 88 -59 214 -116 327 -146 86 -24
115 -27 262 -26 145 0 177 3 262 26 199 53 363 151 506 302 181 192 270 404
288 688 l7 107 90 0 90 0 -7 -122 c-7 -135 -30 -252 -71 -368 -169 -469 -615
-794 -1120 -817 -358 -16 -664 104 -921 361 -230 231 -347 494 -361 814 l-6
132 92 0 91 0 0 -73z"/>
<path d="M3912 4227 c-48 -18 -99 -63 -125 -110 -21 -40 -22 -53 -25 -340 -2
-193 1 -317 8 -350 13 -61 46 -113 93 -145 l34 -22 -18 -108 c-11 -59 -19
-124 -19 -145 0 -74 80 -120 152 -86 13 6 79 80 148 164 l125 154 340 3 c372
3 379 4 439 64 55 55 56 64 56 441 0 342 -1 349 -23 388 -12 21 -42 53 -65 70
l-44 30 -288 3 c-308 3 -323 1 -340 -44 -14 -35 11 -91 45 -104 15 -6 136 -10
280 -10 217 0 256 -2 269 -16 24 -23 24 -608 0 -642 l-15 -22 -347 0 c-403 0
-371 8 -472 -114 -34 -42 -64 -76 -66 -76 -1 0 -2 21 -2 48 1 56 -21 105 -60
129 -15 9 -37 26 -49 37 -23 19 -23 21 -23 316 0 240 3 300 14 316 12 16 31
20 121 24 102 5 108 7 131 33 32 38 31 80 -2 106 -23 18 -40 21 -133 20 -58 0
-121 -6 -139 -12z"/>
</g>
</svg>
